<svg width="330" height="200" viewBox="0 0 330 200" fill="none" xmlns="http://www.w3.org/2000/svg">
<rect width="330" height="200" rx="30" fill="white"/>
<path d="M169.742 146.404L168.431 143H160.569L159.259 146.404H156.245C155.557 146.404 155 146.983 155 147.698V157.695C155 158.416 155.562 159 156.256 159H172.744C173.438 159 174 158.416 174 157.695V147.698C174 146.983 173.443 146.404 172.755 146.404H169.742Z" fill="#011638" fill-opacity="0.46"/>
<path d="M164.5 157.638C167.576 157.638 170.069 155.047 170.069 151.851C170.069 148.655 167.576 146.064 164.5 146.064C161.424 146.064 158.931 148.655 158.931 151.851C158.931 155.047 161.424 157.638 164.5 157.638Z" fill="#CDCDCD"/>
<path d="M164.5 155.596C166.49 155.596 168.104 153.919 168.104 151.851C168.104 149.783 166.49 148.106 164.5 148.106C162.51 148.106 160.897 149.783 160.897 151.851C160.897 153.919 162.51 155.596 164.5 155.596Z" fill="#485265"/>
<path d="M158.276 144.702H156.966V146.404H158.276V144.702Z" fill="#38454F"/>
<path d="M171.707 149.809C172.25 149.809 172.69 149.351 172.69 148.787C172.69 148.223 172.25 147.766 171.707 147.766C171.164 147.766 170.724 148.223 170.724 148.787C170.724 149.351 171.164 149.809 171.707 149.809Z" fill="#F0A202"/>
<path d="M165.483 151.851C165.483 153.075 165.947 154.158 166.662 154.842C167.536 154.158 168.104 153.075 168.104 151.851C168.104 150.627 167.536 149.544 166.662 148.86C165.947 149.544 165.483 150.627 165.483 151.851Z" fill="#46556E"/>
<path d="M160.897 151.851C160.897 153.075 161.464 154.158 162.338 154.842C163.053 154.158 163.517 153.075 163.517 151.851C163.517 150.627 163.053 149.544 162.338 148.86C161.464 149.544 160.897 150.627 160.897 151.851Z" fill="#46556E"/>
<path d="M164.5 155.936C162.332 155.936 160.569 154.104 160.569 151.851C160.569 149.598 162.332 147.766 164.5 147.766C166.668 147.766 168.431 149.598 168.431 151.851C168.431 154.104 166.668 155.936 164.5 155.936ZM164.5 148.447C162.694 148.447 161.224 149.974 161.224 151.851C161.224 153.728 162.694 155.255 164.5 155.255C166.307 155.255 167.776 153.728 167.776 151.851C167.776 149.974 166.307 148.447 164.5 148.447Z" fill="#011638"/>
<path d="M164.992 151.851C165.625 151.851 166.138 151.318 166.138 150.66C166.138 150.002 165.625 149.468 164.992 149.468C164.358 149.468 163.845 150.002 163.845 150.66C163.845 151.318 164.358 151.851 164.992 151.851Z" fill="#4674E8"/>
<path d="M164.173 151.851C164.534 151.851 164.828 151.546 164.828 151.17C164.828 150.794 164.534 150.489 164.173 150.489C163.811 150.489 163.517 150.794 163.517 151.17C163.517 151.546 163.811 151.851 164.173 151.851Z" fill="#BF4D90"/>
<path d="M163.19 151.17C163.552 151.17 163.845 150.865 163.845 150.489C163.845 150.113 163.552 149.809 163.19 149.809C162.828 149.809 162.535 150.113 162.535 150.489C162.535 150.865 162.828 151.17 163.19 151.17Z" fill="#BCCEF7"/>
<path d="M164.5 115C187.972 115 207 95.9721 207 72.5C207 49.0279 187.972 30 164.5 30C141.028 30 122 49.0279 122 72.5C122 95.9721 141.028 115 164.5 115Z" fill="#F0A202"/>
<path d="M180.498 60.4764L186.593 54.3978H200.053V63.1483H192.254L180.498 60.4764Z" fill="#364156"/>
<path d="M180.498 81.2004L186.593 87.279H200.053V78.5285H192.254L180.498 81.2004Z" fill="#364156"/>
<path d="M149.921 80.9165V87.0452C149.921 89.0157 151.224 90.6022 152.827 90.6022H169.977C171.581 90.6022 172.883 88.999 172.883 87.0452V80.9165H149.921Z" fill="#364156"/>
<path d="M202.942 70.8468C202.942 78.278 180.264 84.3065 159.023 84.3065C137.781 84.3065 126.058 78.2613 126.058 70.8468C126.058 63.4322 137.798 57.387 159.023 57.387C180.247 57.387 202.942 63.4155 202.942 70.8468Z" fill="#DEDEDF"/>
<path d="M202.875 70.1287C201.506 63.0314 179.579 57.387 159.039 57.387C137.814 57.387 126.075 63.4155 126.075 70.8468C126.075 71.1307 126.091 71.4145 126.125 71.6984C131.669 75.7397 142.691 78.445 158.455 78.445C176.173 78.445 194.809 75.0216 202.875 70.1287Z" fill="#FFFFF2"/>
<path d="M155.599 85.7593H152.276V88.8153H155.599V85.7593Z" fill="#FFFFF2"/>
<path d="M160.576 85.7593H157.252V88.8153H160.576V85.7593Z" fill="#FFFFF2"/>
<path d="M165.535 85.7593H162.212V88.8153H165.535V85.7593Z" fill="#FFFFF2"/>
<path d="M170.495 85.7593H167.172V88.8153H170.495V85.7593Z" fill="#FFFFF2"/>
<path d="M198.634 69.9617H181.383C180.899 69.9617 180.498 70.3625 180.498 70.8468C180.498 71.3311 180.899 71.7318 181.383 71.7318H198.634C199.118 71.7318 199.519 71.3311 199.519 70.8468C199.519 70.3458 199.118 69.9617 198.634 69.9617Z" fill="#364156"/>
<path d="M139.134 70.613H126.91C128.346 69.4607 132.888 66.2377 138.566 66.2377C138.683 66.2377 138.783 66.1375 138.783 66.004C138.783 65.8704 138.683 65.7702 138.566 65.7702C132.804 65.7702 128.179 69.0098 126.659 70.2122C127.16 68.5757 129.131 64.2672 136.078 62.4637C136.194 62.4303 136.278 62.3134 136.245 62.1798C136.211 62.0629 136.094 61.9794 135.977 62.0128C127.077 64.334 126.075 70.7132 126.075 70.78V70.7967V70.8134C126.075 70.8134 126.075 70.8134 126.075 70.8301C126.075 70.8301 126.075 70.8301 126.075 70.8468C126.091 70.9136 127.077 77.3095 135.977 79.614C135.994 79.614 136.011 79.614 136.027 79.614C136.128 79.614 136.211 79.5472 136.245 79.447C136.278 79.3301 136.194 79.1965 136.078 79.1631C129.147 77.3595 127.177 73.0511 126.659 71.4146C128.179 72.6169 132.804 75.8566 138.566 75.8566C138.683 75.8566 138.783 75.7564 138.783 75.6228C138.783 75.4892 138.683 75.389 138.566 75.389C132.888 75.389 128.346 72.166 126.91 71.0138H139.117C139.234 71.0138 139.334 70.9136 139.334 70.78C139.334 70.6464 139.25 70.613 139.134 70.613Z" fill="#364156"/>
<path d="M47.4382 132.23H48.7902C48.8162 132.23 48.8378 132.221 48.8552 132.204C48.8812 132.178 48.8898 132.152 48.8812 132.126L48.1272 128.733C48.1272 128.724 48.1228 128.72 48.1142 128.72C48.1055 128.72 48.1012 128.724 48.1012 128.733L47.3472 132.126C47.3385 132.152 47.3428 132.178 47.3602 132.204C47.3862 132.221 47.4122 132.23 47.4382 132.23ZM49.7262 127.212L52.2742 135.298C52.3262 135.471 52.2958 135.632 52.1832 135.779C52.0792 135.926 51.9362 136 51.7542 136H50.4802C50.2635 136 50.0685 135.935 49.8952 135.805C49.7305 135.666 49.6265 135.493 49.5832 135.285L49.3622 134.284C49.3448 134.215 49.3015 134.18 49.2322 134.18H47.0092C46.9225 134.18 46.8748 134.215 46.8662 134.284L46.6452 135.285C46.6018 135.493 46.4935 135.666 46.3202 135.805C46.1555 135.935 45.9648 136 45.7482 136H44.5262C44.3442 136 44.1968 135.926 44.0842 135.779C43.9802 135.632 43.9542 135.471 44.0062 135.298L46.5542 127.212C46.6148 127.004 46.7318 126.835 46.9052 126.705C47.0872 126.575 47.2908 126.51 47.5162 126.51H48.7642C48.9808 126.51 49.1758 126.575 49.3492 126.705C49.5312 126.835 49.6568 127.004 49.7262 127.212ZM57.3834 133.335V131.905C57.3834 131.654 57.2707 131.428 57.0454 131.229C56.8287 131.03 56.573 130.93 56.2784 130.93C55.5417 130.93 55.1734 131.493 55.1734 132.62C55.1734 133.183 55.273 133.608 55.4724 133.894C55.6717 134.171 55.9404 134.31 56.2784 134.31C56.573 134.31 56.8287 134.21 57.0454 134.011C57.2707 133.812 57.3834 133.586 57.3834 133.335ZM59.0474 126.25C59.2467 126.25 59.42 126.324 59.5674 126.471C59.7147 126.618 59.7884 126.792 59.7884 126.991V135.259C59.7884 135.458 59.7147 135.632 59.5674 135.779C59.42 135.926 59.2467 136 59.0474 136H58.2284C58.0204 136 57.8427 135.931 57.6954 135.792C57.548 135.645 57.47 135.467 57.4614 135.259V135.155C57.4614 135.146 57.457 135.142 57.4484 135.142C57.4397 135.142 57.431 135.146 57.4224 135.155C56.8937 135.805 56.209 136.13 55.3684 136.13C54.6144 136.13 53.9904 135.822 53.4964 135.207C53.011 134.592 52.7684 133.729 52.7684 132.62C52.7684 131.485 53.0024 130.618 53.4704 130.02C53.9384 129.413 54.571 129.11 55.3684 129.11C56.0617 129.11 56.6987 129.366 57.2794 129.877C57.288 129.886 57.2967 129.89 57.3054 129.89C57.314 129.89 57.3184 129.886 57.3184 129.877V126.991C57.3184 126.792 57.392 126.618 57.5394 126.471C57.6867 126.324 57.86 126.25 58.0594 126.25H59.0474ZM65.7115 133.335V131.905C65.7115 131.654 65.5988 131.428 65.3735 131.229C65.1568 131.03 64.9011 130.93 64.6065 130.93C63.8698 130.93 63.5015 131.493 63.5015 132.62C63.5015 133.183 63.6011 133.608 63.8005 133.894C63.9998 134.171 64.2685 134.31 64.6065 134.31C64.9011 134.31 65.1568 134.21 65.3735 134.011C65.5988 133.812 65.7115 133.586 65.7115 133.335ZM67.3755 126.25C67.5748 126.25 67.7481 126.324 67.8955 126.471C68.0428 126.618 68.1165 126.792 68.1165 126.991V135.259C68.1165 135.458 68.0428 135.632 67.8955 135.779C67.7481 135.926 67.5748 136 67.3755 136H66.5565C66.3485 136 66.1708 135.931 66.0235 135.792C65.8761 135.645 65.7981 135.467 65.7895 135.259V135.155C65.7895 135.146 65.7851 135.142 65.7765 135.142C65.7678 135.142 65.7591 135.146 65.7505 135.155C65.2218 135.805 64.5371 136.13 63.6965 136.13C62.9425 136.13 62.3185 135.822 61.8245 135.207C61.3391 134.592 61.0965 133.729 61.0965 132.62C61.0965 131.485 61.3305 130.618 61.7985 130.02C62.2665 129.413 62.8991 129.11 63.6965 129.11C64.3898 129.11 65.0268 129.366 65.6075 129.877C65.6161 129.886 65.6248 129.89 65.6335 129.89C65.6421 129.89 65.6465 129.886 65.6465 129.877V126.991C65.6465 126.792 65.7201 126.618 65.8675 126.471C66.0148 126.324 66.1881 126.25 66.3875 126.25H67.3755ZM78.3537 134.219C78.5443 134.184 78.7133 134.223 78.8607 134.336C79.008 134.449 79.0817 134.6 79.0817 134.791V135.129C79.0817 135.346 79.0123 135.536 78.8737 135.701C78.7437 135.866 78.5703 135.965 78.3537 136C77.747 136.087 77.2313 136.13 76.8067 136.13C75.654 136.13 74.77 135.835 74.1547 135.246C73.5393 134.657 73.2317 133.781 73.2317 132.62C73.2317 131.485 73.5263 130.618 74.1157 130.02C74.7137 129.413 75.5673 129.11 76.6767 129.11C77.1013 129.11 77.617 129.153 78.2237 129.24C78.4403 129.275 78.6137 129.374 78.7437 129.539C78.8823 129.704 78.9517 129.894 78.9517 130.111V130.449C78.9517 130.64 78.878 130.791 78.7307 130.904C78.5833 131.017 78.4143 131.056 78.2237 131.021C77.8683 130.96 77.5043 130.93 77.1317 130.93C76.6897 130.93 76.3603 131.064 76.1437 131.333C75.9357 131.602 75.8317 132.031 75.8317 132.62C75.8317 133.218 75.9443 133.651 76.1697 133.92C76.4037 134.18 76.7677 134.31 77.2617 134.31C77.6343 134.31 77.9983 134.28 78.3537 134.219ZM82.9184 134.037C83.0831 134.306 83.3474 134.44 83.7114 134.44C84.0754 134.44 84.3397 134.306 84.5044 134.037C84.6691 133.76 84.7514 133.287 84.7514 132.62C84.7514 131.953 84.6691 131.485 84.5044 131.216C84.3397 130.939 84.0754 130.8 83.7114 130.8C83.3474 130.8 83.0831 130.939 82.9184 131.216C82.7537 131.485 82.6714 131.953 82.6714 132.62C82.6714 133.287 82.7537 133.76 82.9184 134.037ZM81.1244 130.046C81.7397 129.422 82.6021 129.11 83.7114 129.11C84.8207 129.11 85.6831 129.422 86.2984 130.046C86.9137 130.661 87.2214 131.519 87.2214 132.62C87.2214 133.721 86.9137 134.583 86.2984 135.207C85.6831 135.822 84.8207 136.13 83.7114 136.13C82.6021 136.13 81.7397 135.822 81.1244 135.207C80.5091 134.583 80.2014 133.721 80.2014 132.62C80.2014 131.519 80.5091 130.661 81.1244 130.046ZM90.7895 134.037C90.9542 134.306 91.2185 134.44 91.5825 134.44C91.9465 134.44 92.2108 134.306 92.3755 134.037C92.5402 133.76 92.6225 133.287 92.6225 132.62C92.6225 131.953 92.5402 131.485 92.3755 131.216C92.2108 130.939 91.9465 130.8 91.5825 130.8C91.2185 130.8 90.9542 130.939 90.7895 131.216C90.6248 131.485 90.5425 131.953 90.5425 132.62C90.5425 133.287 90.6248 133.76 90.7895 134.037ZM88.9955 130.046C89.6108 129.422 90.4732 129.11 91.5825 129.11C92.6918 129.11 93.5542 129.422 94.1695 130.046C94.7848 130.661 95.0925 131.519 95.0925 132.62C95.0925 133.721 94.7848 134.583 94.1695 135.207C93.5542 135.822 92.6918 136.13 91.5825 136.13C90.4732 136.13 89.6108 135.822 88.9955 135.207C88.3802 134.583 88.0725 133.721 88.0725 132.62C88.0725 131.519 88.3802 130.661 88.9955 130.046ZM98.3906 126.25C98.59 126.25 98.7633 126.324 98.9106 126.471C99.058 126.618 99.1316 126.792 99.1316 126.991V135.259C99.1316 135.458 99.058 135.632 98.9106 135.779C98.7633 135.926 98.59 136 98.3906 136H97.2726C97.0733 136 96.9 135.926 96.7526 135.779C96.6053 135.632 96.5316 135.458 96.5316 135.259V126.991C96.5316 126.792 96.6053 126.618 96.7526 126.471C96.9 126.324 97.0733 126.25 97.2726 126.25H98.3906ZM103.957 131.645C104.945 131.775 105.647 132.026 106.063 132.399C106.479 132.763 106.687 133.292 106.687 133.985C106.687 134.67 106.44 135.198 105.946 135.571C105.452 135.944 104.724 136.13 103.762 136.13C103.052 136.13 102.337 136.061 101.617 135.922C101.409 135.879 101.236 135.77 101.097 135.597C100.967 135.424 100.902 135.224 100.902 134.999V134.661C100.902 134.479 100.976 134.336 101.123 134.232C101.271 134.128 101.431 134.098 101.604 134.141C102.254 134.297 102.865 134.375 103.437 134.375C103.914 134.375 104.152 134.236 104.152 133.959C104.152 133.829 104.113 133.734 104.035 133.673C103.957 133.612 103.801 133.565 103.567 133.53C102.605 133.374 101.908 133.105 101.474 132.724C101.05 132.343 100.837 131.831 100.837 131.19C100.837 130.531 101.089 130.02 101.591 129.656C102.103 129.292 102.87 129.11 103.892 129.11C104.568 129.11 105.192 129.153 105.764 129.24C105.981 129.275 106.154 129.374 106.284 129.539C106.423 129.704 106.492 129.894 106.492 130.111V130.384C106.492 130.566 106.414 130.718 106.258 130.839C106.111 130.952 105.946 130.991 105.764 130.956C105.236 130.852 104.694 130.8 104.139 130.8C103.853 130.8 103.654 130.83 103.541 130.891C103.429 130.952 103.372 131.051 103.372 131.19C103.372 131.45 103.567 131.602 103.957 131.645ZM115.511 134.31C115.849 134.31 116.118 134.171 116.317 133.894C116.516 133.608 116.616 133.183 116.616 132.62C116.616 131.493 116.248 130.93 115.511 130.93C115.234 130.93 114.978 131.034 114.744 131.242C114.519 131.45 114.406 131.671 114.406 131.905V133.335C114.406 133.569 114.519 133.79 114.744 133.998C114.978 134.206 115.234 134.31 115.511 134.31ZM116.421 129.11C117.218 129.11 117.851 129.413 118.319 130.02C118.787 130.618 119.021 131.485 119.021 132.62C119.021 133.729 118.774 134.592 118.28 135.207C117.795 135.822 117.175 136.13 116.421 136.13C115.736 136.13 115.099 135.87 114.51 135.35C114.501 135.341 114.493 135.337 114.484 135.337C114.475 135.337 114.471 135.341 114.471 135.35V138.119C114.471 138.318 114.397 138.492 114.25 138.639C114.103 138.786 113.929 138.86 113.73 138.86H112.742C112.543 138.86 112.369 138.786 112.222 138.639C112.075 138.492 112.001 138.318 112.001 138.119V129.981C112.001 129.782 112.075 129.608 112.222 129.461C112.369 129.314 112.543 129.24 112.742 129.24H113.626C113.834 129.24 114.012 129.314 114.159 129.461C114.306 129.6 114.384 129.773 114.393 129.981V130.085C114.393 130.094 114.397 130.098 114.406 130.098C114.415 130.098 114.423 130.094 114.432 130.085C114.969 129.435 115.632 129.11 116.421 129.11ZM122.385 129.24C122.584 129.24 122.757 129.314 122.905 129.461C123.052 129.608 123.126 129.782 123.126 129.981V135.259C123.126 135.458 123.052 135.632 122.905 135.779C122.757 135.926 122.584 136 122.385 136H121.267C121.067 136 120.894 135.926 120.747 135.779C120.599 135.632 120.526 135.458 120.526 135.259V129.981C120.526 129.782 120.599 129.608 120.747 129.461C120.894 129.314 121.067 129.24 121.267 129.24H122.385ZM122.385 126.25C122.584 126.25 122.757 126.324 122.905 126.471C123.052 126.618 123.126 126.792 123.126 126.991V127.329C123.126 127.528 123.052 127.702 122.905 127.849C122.757 127.996 122.584 128.07 122.385 128.07H121.267C121.067 128.07 120.894 127.996 120.747 127.849C120.599 127.702 120.526 127.528 120.526 127.329V126.991C120.526 126.792 120.599 126.618 120.747 126.471C120.894 126.324 121.067 126.25 121.267 126.25H122.385ZM129.694 134.219C129.884 134.184 130.053 134.223 130.201 134.336C130.348 134.449 130.422 134.6 130.422 134.791V135.129C130.422 135.346 130.352 135.536 130.214 135.701C130.084 135.866 129.91 135.965 129.694 136C129.087 136.087 128.571 136.13 128.147 136.13C126.994 136.13 126.11 135.835 125.495 135.246C124.879 134.657 124.572 133.781 124.572 132.62C124.572 131.485 124.866 130.618 125.456 130.02C126.054 129.413 126.907 129.11 128.017 129.11C128.441 129.11 128.957 129.153 129.564 129.24C129.78 129.275 129.954 129.374 130.084 129.539C130.222 129.704 130.292 129.894 130.292 130.111V130.449C130.292 130.64 130.218 130.791 130.071 130.904C129.923 131.017 129.754 131.056 129.564 131.021C129.208 130.96 128.844 130.93 128.472 130.93C128.03 130.93 127.7 131.064 127.484 131.333C127.276 131.602 127.172 132.031 127.172 132.62C127.172 133.218 127.284 133.651 127.51 133.92C127.744 134.18 128.108 134.31 128.602 134.31C128.974 134.31 129.338 134.28 129.694 134.219ZM136.78 129.5C136.98 129.5 137.153 129.574 137.3 129.721C137.448 129.868 137.521 130.042 137.521 130.241V130.449C137.521 130.648 137.448 130.822 137.3 130.969C137.153 131.116 136.98 131.19 136.78 131.19H135.623C135.545 131.19 135.506 131.229 135.506 131.307V133.14C135.506 133.66 135.55 133.985 135.636 134.115C135.723 134.245 135.918 134.31 136.221 134.31C136.343 134.31 136.49 134.297 136.663 134.271C136.845 134.245 137.01 134.293 137.157 134.414C137.313 134.527 137.391 134.674 137.391 134.856V135.194C137.391 135.411 137.322 135.606 137.183 135.779C137.053 135.944 136.884 136.039 136.676 136.065C136.373 136.108 136.005 136.13 135.571 136.13C134.644 136.13 133.99 135.931 133.608 135.532C133.227 135.133 133.036 134.423 133.036 133.4V131.307C133.036 131.229 132.997 131.19 132.919 131.19H132.412C132.213 131.19 132.04 131.116 131.892 130.969C131.745 130.822 131.671 130.648 131.671 130.449V130.241C131.671 130.042 131.745 129.868 131.892 129.721C132.04 129.574 132.213 129.5 132.412 129.5H132.919C132.997 129.5 133.036 129.461 133.036 129.383V127.771C133.036 127.572 133.11 127.398 133.257 127.251C133.405 127.104 133.578 127.03 133.777 127.03H134.765C134.965 127.03 135.138 127.104 135.285 127.251C135.433 127.398 135.506 127.572 135.506 127.771V129.383C135.506 129.461 135.545 129.5 135.623 129.5H136.78ZM144.915 129.24C145.115 129.24 145.288 129.314 145.435 129.461C145.583 129.608 145.656 129.782 145.656 129.981V135.259C145.656 135.458 145.583 135.632 145.435 135.779C145.288 135.926 145.115 136 144.915 136H144.031C143.823 136 143.646 135.931 143.498 135.792C143.351 135.645 143.273 135.467 143.264 135.259V135.155C143.264 135.146 143.26 135.142 143.251 135.142C143.234 135.142 143.225 135.146 143.225 135.155C142.688 135.805 142.025 136.13 141.236 136.13C140.474 136.13 139.923 135.918 139.585 135.493C139.256 135.068 139.091 134.327 139.091 133.27V129.981C139.091 129.782 139.165 129.608 139.312 129.461C139.46 129.314 139.633 129.24 139.832 129.24H140.755C140.955 129.24 141.128 129.314 141.275 129.461C141.423 129.608 141.496 129.782 141.496 129.981V133.14C141.496 133.539 141.548 133.812 141.652 133.959C141.765 134.106 141.951 134.18 142.211 134.18C142.454 134.18 142.675 134.085 142.874 133.894C143.082 133.703 143.186 133.495 143.186 133.27V129.981C143.186 129.782 143.26 129.608 143.407 129.461C143.555 129.314 143.728 129.24 143.927 129.24H144.915ZM152.013 129.266C152.212 129.24 152.386 129.301 152.533 129.448C152.68 129.595 152.754 129.773 152.754 129.981V130.319C152.754 130.518 152.685 130.692 152.546 130.839C152.407 130.978 152.234 131.06 152.026 131.086C151.359 131.173 150.826 131.424 150.427 131.84C150.028 132.247 149.829 132.746 149.829 133.335V135.259C149.829 135.458 149.755 135.632 149.608 135.779C149.461 135.926 149.287 136 149.088 136H148.035C147.836 136 147.662 135.926 147.515 135.779C147.368 135.632 147.294 135.458 147.294 135.259V129.981C147.294 129.782 147.368 129.608 147.515 129.461C147.662 129.314 147.836 129.24 148.035 129.24H149.023C149.222 129.24 149.396 129.314 149.543 129.461C149.69 129.608 149.764 129.782 149.764 129.981V130.527C149.764 130.536 149.768 130.54 149.777 130.54C149.786 130.54 149.794 130.536 149.803 130.527C150.349 129.808 151.086 129.387 152.013 129.266ZM157.796 131.97C157.874 131.97 157.913 131.931 157.913 131.853C157.904 131.454 157.818 131.168 157.653 130.995C157.497 130.822 157.259 130.735 156.938 130.735C156.6 130.735 156.344 130.822 156.171 130.995C156.006 131.16 155.902 131.45 155.859 131.866C155.859 131.935 155.894 131.97 155.963 131.97H157.796ZM156.873 129.11C159.074 129.11 160.179 130.271 160.188 132.594C160.188 132.802 160.11 132.98 159.954 133.127C159.798 133.266 159.612 133.335 159.395 133.335H155.989C155.911 133.335 155.881 133.374 155.898 133.452C155.976 133.816 156.145 134.072 156.405 134.219C156.674 134.366 157.09 134.44 157.653 134.44C158.008 134.44 158.442 134.388 158.953 134.284C159.135 134.241 159.3 134.28 159.447 134.401C159.594 134.514 159.668 134.665 159.668 134.856V135.064C159.668 135.281 159.599 135.48 159.46 135.662C159.33 135.835 159.161 135.939 158.953 135.974C158.424 136.078 157.861 136.13 157.263 136.13C156.032 136.13 155.083 135.831 154.416 135.233C153.757 134.626 153.428 133.755 153.428 132.62C153.428 131.493 153.723 130.627 154.312 130.02C154.901 129.413 155.755 129.11 156.873 129.11ZM164.362 131.645C165.35 131.775 166.052 132.026 166.468 132.399C166.884 132.763 167.092 133.292 167.092 133.985C167.092 134.67 166.845 135.198 166.351 135.571C165.857 135.944 165.129 136.13 164.167 136.13C163.456 136.13 162.741 136.061 162.022 135.922C161.814 135.879 161.64 135.77 161.502 135.597C161.372 135.424 161.307 135.224 161.307 134.999V134.661C161.307 134.479 161.38 134.336 161.528 134.232C161.675 134.128 161.835 134.098 162.009 134.141C162.659 134.297 163.27 134.375 163.842 134.375C164.318 134.375 164.557 134.236 164.557 133.959C164.557 133.829 164.518 133.734 164.44 133.673C164.362 133.612 164.206 133.565 163.972 133.53C163.01 133.374 162.312 133.105 161.879 132.724C161.454 132.343 161.242 131.831 161.242 131.19C161.242 130.531 161.493 130.02 161.996 129.656C162.507 129.292 163.274 129.11 164.297 129.11C164.973 129.11 165.597 129.153 166.169 129.24C166.385 129.275 166.559 129.374 166.689 129.539C166.827 129.704 166.897 129.894 166.897 130.111V130.384C166.897 130.566 166.819 130.718 166.663 130.839C166.515 130.952 166.351 130.991 166.169 130.956C165.64 130.852 165.098 130.8 164.544 130.8C164.258 130.8 164.058 130.83 163.946 130.891C163.833 130.952 163.777 131.051 163.777 131.19C163.777 131.45 163.972 131.602 164.362 131.645ZM177.189 129.5C177.389 129.5 177.562 129.574 177.709 129.721C177.857 129.868 177.93 130.042 177.93 130.241V130.449C177.93 130.648 177.857 130.822 177.709 130.969C177.562 131.116 177.389 131.19 177.189 131.19H176.032C175.954 131.19 175.915 131.229 175.915 131.307V133.14C175.915 133.66 175.959 133.985 176.045 134.115C176.132 134.245 176.327 134.31 176.63 134.31C176.752 134.31 176.899 134.297 177.072 134.271C177.254 134.245 177.419 134.293 177.566 134.414C177.722 134.527 177.8 134.674 177.8 134.856V135.194C177.8 135.411 177.731 135.606 177.592 135.779C177.462 135.944 177.293 136.039 177.085 136.065C176.782 136.108 176.414 136.13 175.98 136.13C175.053 136.13 174.399 135.931 174.017 135.532C173.636 135.133 173.445 134.423 173.445 133.4V131.307C173.445 131.229 173.406 131.19 173.328 131.19H172.821C172.622 131.19 172.449 131.116 172.301 130.969C172.154 130.822 172.08 130.648 172.08 130.449V130.241C172.08 130.042 172.154 129.868 172.301 129.721C172.449 129.574 172.622 129.5 172.821 129.5H173.328C173.406 129.5 173.445 129.461 173.445 129.383V127.771C173.445 127.572 173.519 127.398 173.666 127.251C173.814 127.104 173.987 127.03 174.186 127.03H175.174C175.374 127.03 175.547 127.104 175.694 127.251C175.842 127.398 175.915 127.572 175.915 127.771V129.383C175.915 129.461 175.954 129.5 176.032 129.5H177.189ZM181.701 134.037C181.865 134.306 182.13 134.44 182.494 134.44C182.858 134.44 183.122 134.306 183.287 134.037C183.451 133.76 183.534 133.287 183.534 132.62C183.534 131.953 183.451 131.485 183.287 131.216C183.122 130.939 182.858 130.8 182.494 130.8C182.13 130.8 181.865 130.939 181.701 131.216C181.536 131.485 181.454 131.953 181.454 132.62C181.454 133.287 181.536 133.76 181.701 134.037ZM179.907 130.046C180.522 129.422 181.384 129.11 182.494 129.11C183.603 129.11 184.465 129.422 185.081 130.046C185.696 130.661 186.004 131.519 186.004 132.62C186.004 133.721 185.696 134.583 185.081 135.207C184.465 135.822 183.603 136.13 182.494 136.13C181.384 136.13 180.522 135.822 179.907 135.207C179.291 134.583 178.984 133.721 178.984 132.62C178.984 131.519 179.291 130.661 179.907 130.046ZM197.074 129.24C197.256 129.24 197.395 129.314 197.49 129.461C197.594 129.6 197.62 129.756 197.568 129.929L194.617 138.171C194.539 138.379 194.409 138.544 194.227 138.665C194.045 138.795 193.846 138.86 193.629 138.86H192.511C192.329 138.86 192.186 138.786 192.082 138.639C191.987 138.5 191.974 138.349 192.043 138.184L192.901 136.104C192.91 136.069 192.914 136.035 192.914 136C192.914 135.965 192.91 135.931 192.901 135.896L190.665 129.929C190.596 129.764 190.613 129.608 190.717 129.461C190.821 129.314 190.964 129.24 191.146 129.24H192.394C192.602 129.24 192.788 129.309 192.953 129.448C193.126 129.587 193.235 129.76 193.278 129.968L194.032 133.777C194.032 133.786 194.036 133.79 194.045 133.79C194.054 133.79 194.058 133.786 194.058 133.777L195.033 129.955C195.085 129.747 195.198 129.578 195.371 129.448C195.544 129.309 195.739 129.24 195.956 129.24H197.074ZM200.553 134.037C200.718 134.306 200.982 134.44 201.346 134.44C201.71 134.44 201.975 134.306 202.139 134.037C202.304 133.76 202.386 133.287 202.386 132.62C202.386 131.953 202.304 131.485 202.139 131.216C201.975 130.939 201.71 130.8 201.346 130.8C200.982 130.8 200.718 130.939 200.553 131.216C200.389 131.485 200.306 131.953 200.306 132.62C200.306 133.287 200.389 133.76 200.553 134.037ZM198.759 130.046C199.375 129.422 200.237 129.11 201.346 129.11C202.456 129.11 203.318 129.422 203.933 130.046C204.549 130.661 204.856 131.519 204.856 132.62C204.856 133.721 204.549 134.583 203.933 135.207C203.318 135.822 202.456 136.13 201.346 136.13C200.237 136.13 199.375 135.822 198.759 135.207C198.144 134.583 197.836 133.721 197.836 132.62C197.836 131.519 198.144 130.661 198.759 130.046ZM211.794 129.24C211.994 129.24 212.167 129.314 212.314 129.461C212.462 129.608 212.535 129.782 212.535 129.981V135.259C212.535 135.458 212.462 135.632 212.314 135.779C212.167 135.926 211.994 136 211.794 136H210.91C210.702 136 210.525 135.931 210.377 135.792C210.23 135.645 210.152 135.467 210.143 135.259V135.155C210.143 135.146 210.139 135.142 210.13 135.142C210.113 135.142 210.104 135.146 210.104 135.155C209.567 135.805 208.904 136.13 208.115 136.13C207.353 136.13 206.802 135.918 206.464 135.493C206.135 135.068 205.97 134.327 205.97 133.27V129.981C205.97 129.782 206.044 129.608 206.191 129.461C206.339 129.314 206.512 129.24 206.711 129.24H207.634C207.834 129.24 208.007 129.314 208.154 129.461C208.302 129.608 208.375 129.782 208.375 129.981V133.14C208.375 133.539 208.427 133.812 208.531 133.959C208.644 134.106 208.83 134.18 209.09 134.18C209.333 134.18 209.554 134.085 209.753 133.894C209.961 133.703 210.065 133.495 210.065 133.27V129.981C210.065 129.782 210.139 129.608 210.286 129.461C210.434 129.314 210.607 129.24 210.806 129.24H211.794ZM218.892 129.266C219.091 129.24 219.265 129.301 219.412 129.448C219.559 129.595 219.633 129.773 219.633 129.981V130.319C219.633 130.518 219.564 130.692 219.425 130.839C219.286 130.978 219.113 131.06 218.905 131.086C218.238 131.173 217.705 131.424 217.306 131.84C216.907 132.247 216.708 132.746 216.708 133.335V135.259C216.708 135.458 216.634 135.632 216.487 135.779C216.34 135.926 216.166 136 215.967 136H214.914C214.715 136 214.541 135.926 214.394 135.779C214.247 135.632 214.173 135.458 214.173 135.259V129.981C214.173 129.782 214.247 129.608 214.394 129.461C214.541 129.314 214.715 129.24 214.914 129.24H215.902C216.101 129.24 216.275 129.314 216.422 129.461C216.569 129.608 216.643 129.782 216.643 129.981V130.527C216.643 130.536 216.647 130.54 216.656 130.54C216.665 130.54 216.673 130.536 216.682 130.527C217.228 129.808 217.965 129.387 218.892 129.266ZM232.662 126.25C232.861 126.25 233.035 126.324 233.182 126.471C233.329 126.618 233.403 126.792 233.403 126.991V127.329C233.403 127.528 233.329 127.702 233.182 127.849C233.035 127.996 232.861 128.07 232.662 128.07H231.544C231.345 128.07 231.171 127.996 231.024 127.849C230.877 127.702 230.803 127.528 230.803 127.329V126.991C230.803 126.792 230.877 126.618 231.024 126.471C231.171 126.324 231.345 126.25 231.544 126.25H232.662ZM232.662 129.5C232.861 129.5 233.035 129.574 233.182 129.721C233.329 129.868 233.403 130.042 233.403 130.241V135.259C233.403 135.458 233.329 135.632 233.182 135.779C233.035 135.926 232.861 136 232.662 136H231.544C231.345 136 231.171 135.926 231.024 135.779C230.877 135.632 230.803 135.458 230.803 135.259V131.307C230.803 131.229 230.764 131.19 230.686 131.19H228.502C228.433 131.19 228.398 131.229 228.398 131.307V135.259C228.398 135.458 228.324 135.632 228.177 135.779C228.03 135.926 227.856 136 227.657 136H226.604C226.405 136 226.231 135.926 226.084 135.779C225.937 135.632 225.863 135.458 225.863 135.259V131.307C225.863 131.229 225.824 131.19 225.746 131.19H225.369C225.17 131.19 224.996 131.116 224.849 130.969C224.702 130.822 224.628 130.648 224.628 130.449V130.241C224.628 130.042 224.702 129.868 224.849 129.721C224.996 129.574 225.17 129.5 225.369 129.5H225.746C225.824 129.5 225.863 129.461 225.863 129.383V129.24C225.863 128.261 226.084 127.541 226.526 127.082C226.977 126.614 227.666 126.38 228.593 126.38C228.896 126.38 229.221 126.402 229.568 126.445C229.776 126.471 229.945 126.571 230.075 126.744C230.214 126.909 230.283 127.099 230.283 127.316V127.589C230.283 127.771 230.209 127.918 230.062 128.031C229.923 128.144 229.763 128.187 229.581 128.161C229.425 128.144 229.312 128.135 229.243 128.135C228.896 128.135 228.667 128.204 228.554 128.343C228.45 128.482 228.398 128.781 228.398 129.24V129.383C228.398 129.461 228.433 129.5 228.502 129.5H232.662ZM239.827 129.266C240.026 129.24 240.199 129.301 240.347 129.448C240.494 129.595 240.568 129.773 240.568 129.981V130.319C240.568 130.518 240.498 130.692 240.36 130.839C240.221 130.978 240.048 131.06 239.84 131.086C239.172 131.173 238.639 131.424 238.241 131.84C237.842 132.247 237.643 132.746 237.643 133.335V135.259C237.643 135.458 237.569 135.632 237.422 135.779C237.274 135.926 237.101 136 236.902 136H235.849C235.649 136 235.476 135.926 235.329 135.779C235.181 135.632 235.108 135.458 235.108 135.259V129.981C235.108 129.782 235.181 129.608 235.329 129.461C235.476 129.314 235.649 129.24 235.849 129.24H236.837C237.036 129.24 237.209 129.314 237.357 129.461C237.504 129.608 237.578 129.782 237.578 129.981V130.527C237.578 130.536 237.582 130.54 237.591 130.54C237.599 130.54 237.608 130.536 237.617 130.527C238.163 129.808 238.899 129.387 239.827 129.266ZM244.621 131.645C245.609 131.775 246.311 132.026 246.727 132.399C247.143 132.763 247.351 133.292 247.351 133.985C247.351 134.67 247.104 135.198 246.61 135.571C246.116 135.944 245.388 136.13 244.426 136.13C243.716 136.13 243.001 136.061 242.281 135.922C242.073 135.879 241.9 135.77 241.761 135.597C241.631 135.424 241.566 135.224 241.566 134.999V134.661C241.566 134.479 241.64 134.336 241.787 134.232C241.935 134.128 242.095 134.098 242.268 134.141C242.918 134.297 243.529 134.375 244.101 134.375C244.578 134.375 244.816 134.236 244.816 133.959C244.816 133.829 244.777 133.734 244.699 133.673C244.621 133.612 244.465 133.565 244.231 133.53C243.269 133.374 242.572 133.105 242.138 132.724C241.714 132.343 241.501 131.831 241.501 131.19C241.501 130.531 241.753 130.02 242.255 129.656C242.767 129.292 243.534 129.11 244.556 129.11C245.232 129.11 245.856 129.153 246.428 129.24C246.645 129.275 246.818 129.374 246.948 129.539C247.087 129.704 247.156 129.894 247.156 130.111V130.384C247.156 130.566 247.078 130.718 246.922 130.839C246.775 130.952 246.61 130.991 246.428 130.956C245.9 130.852 245.358 130.8 244.803 130.8C244.517 130.8 244.318 130.83 244.205 130.891C244.093 130.952 244.036 131.051 244.036 131.19C244.036 131.45 244.231 131.602 244.621 131.645ZM253.323 129.5C253.523 129.5 253.696 129.574 253.843 129.721C253.991 129.868 254.064 130.042 254.064 130.241V130.449C254.064 130.648 253.991 130.822 253.843 130.969C253.696 131.116 253.523 131.19 253.323 131.19H252.166C252.088 131.19 252.049 131.229 252.049 131.307V133.14C252.049 133.66 252.093 133.985 252.179 134.115C252.266 134.245 252.461 134.31 252.764 134.31C252.886 134.31 253.033 134.297 253.206 134.271C253.388 134.245 253.553 134.293 253.7 134.414C253.856 134.527 253.934 134.674 253.934 134.856V135.194C253.934 135.411 253.865 135.606 253.726 135.779C253.596 135.944 253.427 136.039 253.219 136.065C252.916 136.108 252.548 136.13 252.114 136.13C251.187 136.13 250.533 135.931 250.151 135.532C249.77 135.133 249.579 134.423 249.579 133.4V131.307C249.579 131.229 249.54 131.19 249.462 131.19H248.955C248.756 131.19 248.583 131.116 248.435 130.969C248.288 130.822 248.214 130.648 248.214 130.449V130.241C248.214 130.042 248.288 129.868 248.435 129.721C248.583 129.574 248.756 129.5 248.955 129.5H249.462C249.54 129.5 249.579 129.461 249.579 129.383V127.771C249.579 127.572 249.653 127.398 249.8 127.251C249.948 127.104 250.121 127.03 250.32 127.03H251.308C251.508 127.03 251.681 127.104 251.828 127.251C251.976 127.398 252.049 127.572 252.049 127.771V129.383C252.049 129.461 252.088 129.5 252.166 129.5H253.323ZM262.496 131.645C263.484 131.775 264.186 132.026 264.602 132.399C265.018 132.763 265.226 133.292 265.226 133.985C265.226 134.67 264.979 135.198 264.485 135.571C263.991 135.944 263.263 136.13 262.301 136.13C261.591 136.13 260.876 136.061 260.156 135.922C259.948 135.879 259.775 135.77 259.636 135.597C259.506 135.424 259.441 135.224 259.441 134.999V134.661C259.441 134.479 259.515 134.336 259.662 134.232C259.81 134.128 259.97 134.098 260.143 134.141C260.793 134.297 261.404 134.375 261.976 134.375C262.453 134.375 262.691 134.236 262.691 133.959C262.691 133.829 262.652 133.734 262.574 133.673C262.496 133.612 262.34 133.565 262.106 133.53C261.144 133.374 260.447 133.105 260.013 132.724C259.589 132.343 259.376 131.831 259.376 131.19C259.376 130.531 259.628 130.02 260.13 129.656C260.642 129.292 261.409 129.11 262.431 129.11C263.107 129.11 263.731 129.153 264.303 129.24C264.52 129.275 264.693 129.374 264.823 129.539C264.962 129.704 265.031 129.894 265.031 130.111V130.384C265.031 130.566 264.953 130.718 264.797 130.839C264.65 130.952 264.485 130.991 264.303 130.956C263.775 130.852 263.233 130.8 262.678 130.8C262.392 130.8 262.193 130.83 262.08 130.891C261.968 130.952 261.911 131.051 261.911 131.19C261.911 131.45 262.106 131.602 262.496 131.645ZM271.198 129.5C271.398 129.5 271.571 129.574 271.718 129.721C271.866 129.868 271.939 130.042 271.939 130.241V130.449C271.939 130.648 271.866 130.822 271.718 130.969C271.571 131.116 271.398 131.19 271.198 131.19H270.041C269.963 131.19 269.924 131.229 269.924 131.307V133.14C269.924 133.66 269.968 133.985 270.054 134.115C270.141 134.245 270.336 134.31 270.639 134.31C270.761 134.31 270.908 134.297 271.081 134.271C271.263 134.245 271.428 134.293 271.575 134.414C271.731 134.527 271.809 134.674 271.809 134.856V135.194C271.809 135.411 271.74 135.606 271.601 135.779C271.471 135.944 271.302 136.039 271.094 136.065C270.791 136.108 270.423 136.13 269.989 136.13C269.062 136.13 268.408 135.931 268.026 135.532C267.645 135.133 267.454 134.423 267.454 133.4V131.307C267.454 131.229 267.415 131.19 267.337 131.19H266.83C266.631 131.19 266.458 131.116 266.31 130.969C266.163 130.822 266.089 130.648 266.089 130.449V130.241C266.089 130.042 266.163 129.868 266.31 129.721C266.458 129.574 266.631 129.5 266.83 129.5H267.337C267.415 129.5 267.454 129.461 267.454 129.383V127.771C267.454 127.572 267.528 127.398 267.675 127.251C267.823 127.104 267.996 127.03 268.195 127.03H269.183C269.383 127.03 269.556 127.104 269.703 127.251C269.851 127.398 269.924 127.572 269.924 127.771V129.383C269.924 129.461 269.963 129.5 270.041 129.5H271.198ZM277.36 131.97C277.438 131.97 277.477 131.931 277.477 131.853C277.469 131.454 277.382 131.168 277.217 130.995C277.061 130.822 276.823 130.735 276.502 130.735C276.164 130.735 275.909 130.822 275.735 130.995C275.571 131.16 275.467 131.45 275.423 131.866C275.423 131.935 275.458 131.97 275.527 131.97H277.36ZM276.437 129.11C278.639 129.11 279.744 130.271 279.752 132.594C279.752 132.802 279.674 132.98 279.518 133.127C279.362 133.266 279.176 133.335 278.959 133.335H275.553C275.475 133.335 275.445 133.374 275.462 133.452C275.54 133.816 275.709 134.072 275.969 134.219C276.238 134.366 276.654 134.44 277.217 134.44C277.573 134.44 278.006 134.388 278.517 134.284C278.699 134.241 278.864 134.28 279.011 134.401C279.159 134.514 279.232 134.665 279.232 134.856V135.064C279.232 135.281 279.163 135.48 279.024 135.662C278.894 135.835 278.725 135.939 278.517 135.974C277.989 136.078 277.425 136.13 276.827 136.13C275.597 136.13 274.648 135.831 273.98 135.233C273.322 134.626 272.992 133.755 272.992 132.62C272.992 131.493 273.287 130.627 273.876 130.02C274.466 129.413 275.319 129.11 276.437 129.11ZM284.511 134.31C284.849 134.31 285.118 134.171 285.317 133.894C285.516 133.608 285.616 133.183 285.616 132.62C285.616 131.493 285.248 130.93 284.511 130.93C284.234 130.93 283.978 131.034 283.744 131.242C283.519 131.45 283.406 131.671 283.406 131.905V133.335C283.406 133.569 283.519 133.79 283.744 133.998C283.978 134.206 284.234 134.31 284.511 134.31ZM285.421 129.11C286.218 129.11 286.851 129.413 287.319 130.02C287.787 130.618 288.021 131.485 288.021 132.62C288.021 133.729 287.774 134.592 287.28 135.207C286.795 135.822 286.175 136.13 285.421 136.13C284.736 136.13 284.099 135.87 283.51 135.35C283.501 135.341 283.493 135.337 283.484 135.337C283.475 135.337 283.471 135.341 283.471 135.35V138.119C283.471 138.318 283.397 138.492 283.25 138.639C283.103 138.786 282.929 138.86 282.73 138.86H281.742C281.543 138.86 281.369 138.786 281.222 138.639C281.075 138.492 281.001 138.318 281.001 138.119V129.981C281.001 129.782 281.075 129.608 281.222 129.461C281.369 129.314 281.543 129.24 281.742 129.24H282.626C282.834 129.24 283.012 129.314 283.159 129.461C283.306 129.6 283.384 129.773 283.393 129.981V130.085C283.393 130.094 283.397 130.098 283.406 130.098C283.415 130.098 283.423 130.094 283.432 130.085C283.969 129.435 284.632 129.11 285.421 129.11Z" fill="#5D6A80"/>
</svg>
