<?xml version="1.0"?>
<svg xmlns="http://www.w3.org/2000/svg" xmlns:xlink="http://www.w3.org/1999/xlink" version="1.1" id="Capa_1" x="0px" y="0px" viewBox="0 0 512 512" style="enable-background:new 0 0 512 512;" xml:space="preserve" width="512px" height="512px" class=""><g><g>
	<g>
		<path style="fill:#3B63A1" d="M308.966,414.897l26.483-44.138h-1.059c19.398-18.621,36.66-39.346,51.465-61.793h90.836    c9.739-0.029,17.626-7.916,17.655-17.655c-0.07-9.722-7.934-17.585-17.655-17.655h-8.828c-9.751,0-17.655-7.904-17.655-17.655    c0-9.751,7.904-17.655,17.655-17.655h26.483c9.739-0.029,17.627-7.916,17.655-17.655c-0.07-9.722-7.934-17.585-17.655-17.655    h-65.501c10.152-57.203-1.059-109.903-26.306-140.006C367.316,21.098,317.97,1.324,262.621,0.177    C260.502,0.088,258.472,0,256.442,0h-0.971c-2.03,0-4.149,0.088-6.091,0.177c-54.466,1.589-103.283,21.363-138.152,62.852    c-36.37,43.343-47.934,136.121,0,216.629c2.472,4.149,4.767,8.033,6.974,11.652H52.966c-9.739,0.028-17.627,7.916-17.655,17.655    c0.071,9.721,7.934,17.585,17.655,17.655h17.655c9.751,0,17.655,7.904,17.655,17.655s-7.904,17.655-17.655,17.655H17.655    C7.917,361.96,0.029,369.847,0,379.586c-0.025,4.684,1.855,9.177,5.208,12.447c3.27,3.353,7.763,5.233,12.447,5.208h174.786    l10.593,17.655H308.966z M220.69,459.035v35.31c0.029,9.739,7.916,17.627,17.655,17.655h35.31    c9.739-0.029,17.626-7.916,17.655-17.655v-35.31H220.69z" data-original="#7D6599" class="" data-old_color="#3F69AC"/>
		<path style="fill:#EDEBA1" d="M291.311,459.035v35.31c-0.029,9.739-7.916,17.627-17.655,17.655h-35.31    c-9.739-0.029-17.627-7.916-17.655-17.655v-35.31H291.311z" data-original="#F29C1F" class="active-path" data-old_color="#E9E7A2"/>
		<g>
			<path style="fill:#FAE5BA" d="M192.442,397.242l-174.786,0c-4.684,0.025-9.176-1.855-12.447-5.208     c-3.353-3.27-5.233-7.763-5.208-12.447c0.028-9.739,7.916-17.627,17.655-17.655h52.966c9.751,0,17.655-7.905,17.655-17.655     s-7.904-17.655-17.655-17.655H52.966c-9.721-0.071-17.585-7.934-17.655-17.655c0.028-9.739,7.916-17.627,17.655-17.655h65.236     c27.012,45.197,32.927,52.789,58.35,79.448L192.442,397.242z" data-original="#B0D3F0" class="" data-old_color="#B0D3F0"/>
			<path style="fill:#FAE5BA" d="M512,220.69c-0.029,9.739-7.916,17.627-17.655,17.655h-26.483     c-9.751,0-17.655,7.904-17.655,17.655c0,9.751,7.904,17.655,17.655,17.655h8.828c9.722,0.07,17.585,7.934,17.655,17.655     c-0.029,9.739-7.916,17.627-17.655,17.655h-90.836c5.208-8.298,10.681-17.92,16.684-29.308     c12.667-24.032,21.54-49.879,26.306-76.623h65.501C504.067,203.105,511.93,210.968,512,220.69z" data-original="#B0D3F0" class="" data-old_color="#B0D3F0"/>
		</g>
	</g>
	<path style="fill:#011638" d="M166.753,266.946c10.473,36.707,26.266,71.682,46.874,103.812h-37.076   c-25.423-26.659-31.338-34.251-58.35-79.448c-2.207-3.619-4.502-7.503-6.974-11.652c-47.934-80.508-36.37-173.286,0-216.629   c34.869-41.49,83.686-61.263,138.152-62.852c-32.574,2.295-61.705,21.186-82.626,59.939   C144.508,101.517,144.508,184.232,166.753,266.946z" data-original="#3B97D3" class="" data-old_color="#3B97D3"/>
	<path style="fill:#082D68" d="M226.251,60.116c-7.415,41.401-7.415,124.116,0,206.83c3.214,34.875,8.431,69.536,15.625,103.812   h-28.248c-20.609-32.13-36.401-67.106-46.874-103.812c-22.245-82.714-22.245-165.429,0-206.83   c20.921-38.753,50.052-57.644,82.626-59.939C251.322,0.089,253.44,0,255.471,0C243.995,0.53,233.578,19.333,226.251,60.116z" data-original="#4FBA6F" class="" data-old_color="#05265B"/>
	<path style="fill:#2E569A" d="M345.247,266.946c-10.473,36.707-26.266,71.682-46.874,103.812h-28.248   c7.194-34.276,12.411-68.937,15.625-103.812c7.415-82.714,7.415-165.429,0-206.83C278.422,19.244,268.006,0.442,256.442,0   c2.03,0,4.061,0.088,6.179,0.177c32.574,2.295,61.705,21.098,82.626,59.939C367.493,101.517,367.493,184.232,345.247,266.946z" data-original="#E64C3C" class="" data-old_color="#314F82"/>
	<path style="fill:#1E478C" d="M285.749,266.946c-3.214,34.875-8.431,69.536-15.625,103.812h-28.248   c-7.194-34.276-12.411-68.937-15.625-103.812c-7.415-82.714-7.415-165.429,0-206.83C233.578,19.333,243.995,0.53,255.471,0h0.971   c11.564,0.441,21.981,19.244,29.308,60.116C293.164,101.517,293.164,184.232,285.749,266.946z" data-original="#F0C419" class="" data-old_color="#285AAD"/>
	<polygon style="fill:#CA9D3D" points="335.449,370.759 308.966,414.897 203.035,414.897 192.442,397.241 176.552,370.759  " data-original="#5E5F62" class="" data-old_color="#D1A341"/>
	<g>
		<path style="fill:#F7E4B9" d="M256,467.862h-35.31c-3.61-0.002-6.856-2.2-8.198-5.552l-17.655-44.138    c-1.086-2.72-0.753-5.801,0.889-8.226s4.38-3.877,7.309-3.877H256c2.341-0.001,4.587,0.929,6.243,2.585    c1.656,1.656,2.585,3.901,2.585,6.243v44.138c0.001,2.341-0.929,4.587-2.585,6.243C260.587,466.933,258.342,467.863,256,467.862z     M226.668,450.207h20.504v-26.483h-31.1L226.668,450.207z" data-original="#A5A5A4" class="" data-old_color="#F4E3BB"/>
		<path style="fill:#F7E4B9" d="M291.311,467.862H256c-2.341,0.001-4.587-0.929-6.243-2.585c-1.656-1.656-2.585-3.901-2.585-6.243    v-44.138c-0.001-2.341,0.929-4.587,2.585-6.243c1.656-1.656,3.901-2.585,6.243-2.585h52.966c2.929,0,5.667,1.453,7.309,3.877    c1.642,2.425,1.975,5.506,0.889,8.226l-17.655,44.138C298.167,465.662,294.921,467.86,291.311,467.862z M264.828,450.207h20.504    l10.595-26.483h-31.099V450.207z" data-original="#A5A5A4" class="" data-old_color="#F4E3BB"/>
	</g>
</g></g> </svg>
