<svg width="32" height="43" viewBox="0 0 32 43" fill="none" xmlns="http://www.w3.org/2000/svg">
<rect width="30" height="41" fill="black" fill-opacity="0" transform="translate(31 42) rotate(180)"/>
<mask id="path-1-outside-1" maskUnits="userSpaceOnUse" x="-0.999998" y="-0.999997" width="33" height="45" fill="black">
<rect fill="white" x="-0.999998" y="-0.999997" width="33" height="45"/>
<path fill-rule="evenodd" clip-rule="evenodd" d="M16 1C7.7157 1 1 7.7157 1 16C1 21.8422 4.3399 26.9042 9.21448 29.381L16.5 42L24.2941 28.5002C28.3361 25.813 31 21.2176 31 16C31 7.7157 24.2842 1 16 1Z"/>
</mask>
<path fill-rule="evenodd" clip-rule="evenodd" d="M16 1C7.7157 1 1 7.7157 1 16C1 21.8422 4.3399 26.9042 9.21448 29.381L16.5 42L24.2941 28.5002C28.3361 25.813 31 21.2176 31 16C31 7.7157 24.2842 1 16 1Z" fill="#F0A202"/>
<path d="M9.21448 29.381L10.0805 28.881C9.98365 28.7133 9.84016 28.5773 9.66746 28.4895L9.21448 29.381ZM16.5 42L15.634 42.5C15.8126 42.8094 16.1427 43 16.5 43C16.8573 43 17.1874 42.8094 17.366 42.5L16.5 42ZM24.2941 28.5002L23.7404 27.6675C23.612 27.7528 23.5051 27.8667 23.428 28.0002L24.2941 28.5002ZM2 16C2 8.26798 8.26798 2 16 2V5.96046e-08C7.16341 5.96046e-08 5.96046e-08 7.16341 5.96046e-08 16L2 16ZM9.66746 28.4895C5.11539 26.1766 2 21.4512 2 16L5.96046e-08 16C5.96046e-08 22.2331 3.56442 27.6319 8.76149 30.2726L9.66746 28.4895ZM17.366 41.5L10.0805 28.881L8.34845 29.881L15.634 42.5L17.366 41.5ZM23.428 28.0002L15.634 41.5L17.366 42.5L25.1601 29.0002L23.428 28.0002ZM30 16C30 20.8688 27.5155 25.1577 23.7404 27.6675L24.8477 29.333C29.1566 26.4683 32 21.5664 32 16H30ZM16 2C23.732 2 30 8.26799 30 16H32C32 7.16341 24.8365 5.96046e-08 16 5.96046e-08V2Z" fill="white" mask="url(#path-1-outside-1)"/>
</svg>
