<?xml version="1.0"?>
<svg xmlns="http://www.w3.org/2000/svg" xmlns:xlink="http://www.w3.org/1999/xlink" version="1.1" id="Layer_1" x="0px" y="0px" viewBox="0 0 509 509" style="enable-background:new 0 0 509 509;" xml:space="preserve" width="512px" height="512px" class=""><g><g transform="matrix(1 0 0 1 0 0)"><circle style="fill:#F0A202" cx="254.5" cy="254.5" r="254.5" data-original="#F5C35E" class="active-path" data-old_color="#F5C35E"/><g>
	<polygon style="fill:#364156" points="350.3,182.5 386.8,146.1 467.4,146.1 467.4,198.5 420.7,198.5  " data-original="#364156" class="" data-old_color="#BDBDBE"/>
	<polygon style="fill:#364156" points="350.3,306.6 386.8,343 467.4,343 467.4,290.6 420.7,290.6  " data-original="#364156" class="" data-old_color="#BDBDBE"/>
	<path style="fill:#364156" d="M167.2,304.9v36.7c0,11.8,7.8,21.3,17.4,21.3h102.7c9.6,0,17.4-9.6,17.4-21.3v-36.7H167.2z" data-original="#364156" class="" data-old_color="#BDBDBE"/>
</g><path style="fill:#DEDEDF;" d="M484.7,244.6c0,44.5-135.8,80.6-263,80.6S24.3,289,24.3,244.6S94.6,164,221.7,164  S484.7,200.1,484.7,244.6z" data-original="#DEDEDF" class=""/><path style="fill:#FFFFF2" d="M484.3,240.3c-8.2-42.5-139.5-76.3-262.5-76.3c-127.1,0-197.4,36.1-197.4,80.6c0,1.7,0.1,3.4,0.3,5.1  c33.2,24.2,99.2,40.4,193.6,40.4C324.4,290.1,436,269.6,484.3,240.3z" data-original="#FFFFF2" class="" data-old_color="#F1F3F7"/><g>
	<rect x="181.3" y="333.9" style="fill:#FFFFF2" width="19.9" height="18.3" data-original="#FFFFF2" class="" data-old_color="#FBF7F7"/>
	<rect x="211.1" y="333.9" style="fill:#FFFFF2" width="19.9" height="18.3" data-original="#FFFFF2" class="" data-old_color="#FBF7F7"/>
	<rect x="240.8" y="333.9" style="fill:#FFFFF2" width="19.9" height="18.3" data-original="#FFFFF2" class="" data-old_color="#FBF7F7"/>
	<rect x="270.5" y="333.9" style="fill:#FFFFF2" width="19.9" height="18.3" data-original="#FFFFF2" class="" data-old_color="#FBF7F7"/>
</g><g>
	<path style="fill:#364156" d="M458.9,239.3H355.6c-2.9,0-5.3,2.4-5.3,5.3c0,2.9,2.4,5.3,5.3,5.3h103.3c2.9,0,5.3-2.4,5.3-5.3   C464.2,241.6,461.8,239.3,458.9,239.3z" data-original="#364156" class="" data-old_color="#BDBDBE"/>
	<path style="fill:#364156" d="M102.6,243.2H29.4C38,236.3,65.2,217,99.2,217c0.7,0,1.3-0.6,1.3-1.4s-0.6-1.4-1.3-1.4   c-34.5,0-62.2,19.4-71.3,26.6c3-9.8,14.8-35.6,56.4-46.4c0.7-0.2,1.2-0.9,1-1.7c-0.2-0.7-0.9-1.2-1.6-1   c-53.3,13.9-59.3,52.1-59.3,52.5v0.1v0.1c0,0,0,0,0,0.1c0,0,0,0,0,0.1l0,0c0.1,0.4,6,38.7,59.3,52.5c0.1,0,0.2,0,0.3,0   c0.6,0,1.1-0.4,1.3-1c0.2-0.7-0.3-1.5-1-1.7C42.8,283.6,31,257.8,27.9,248c9.1,7.2,36.8,26.6,71.3,26.6c0.7,0,1.3-0.6,1.3-1.4   s-0.6-1.4-1.3-1.4c-34,0-61.2-19.3-69.8-26.2h73.1c0.7,0,1.3-0.6,1.3-1.4S103.3,243.2,102.6,243.2z" data-original="#364156" class="" data-old_color="#BDBDBE"/>
</g></g></g> </svg>
